HIERARCHY
ROOT root
{
	OFFSET 0.000000 0.000000 0.000000
	CHANNELS 6 Xposition Yposition Zposition Zrotation Yrotation Xrotation
	JOINT lhip
	{
		OFFSET 0.058581 -0.082280 -0.017664
		CHANNELS 3 Zrotation Yrotation Xrotation
		JOINT lknee
		{
			OFFSET 0.043451 -0.386469 0.008037
			CHANNELS 3 Zrotation Yrotation Xrotation
			JOINT lankle
			{
				OFFSET -0.014790 -0.426874 -0.037428
				CHANNELS 3 Zrotation Yrotation Xrotation
				JOINT ltoe
				{
					OFFSET 0.041054 -0.060286 0.122042
					CHANNELS 3 Zrotation Yrotation Xrotation
					End Site
					{
						OFFSET 0.000000 0.000000 0.000000
					}
				}
			}
		}
	}
	JOINT rhip
	{
		OFFSET -0.060310 -0.090513 -0.013543
		CHANNELS 3 Zrotation Yrotation Xrotation
		JOINT rknee
		{
			OFFSET -0.043257 -0.383688 -0.004843
			CHANNELS 3 Zrotation Yrotation Xrotation
			JOINT rankle
			{
				OFFSET 0.019056 -0.420046 -0.034562
				CHANNELS 3 Zrotation Yrotation Xrotation
				JOINT rtoe
				{
					OFFSET -0.034840 -0.062106 0.130323
					CHANNELS 3 Zrotation Yrotation Xrotation
					End Site
					{
						OFFSET 0.000000 0.000000 0.000000
					}
				}
			}
		}
	}
	JOINT lowerback
	{
		OFFSET 0.004439 0.124404 -0.038385
		CHANNELS 3 Zrotation Yrotation Xrotation
		JOINT upperback
		{
			OFFSET 0.004488 0.137956 0.026820
			CHANNELS 3 Zrotation Yrotation Xrotation
			JOINT chest
			{
				OFFSET -0.002265 0.056032 0.002855
				CHANNELS 3 Zrotation Yrotation Xrotation
				JOINT lowerneck
				{
					OFFSET -0.013390 0.211636 -0.033468
					CHANNELS 3 Zrotation Yrotation Xrotation
					JOINT upperneck
					{
						OFFSET 0.010113 0.088937 0.050410
						CHANNELS 3 Zrotation Yrotation Xrotation
						End Site
						{
							OFFSET 0.000000 0.000000 0.000000
						}
					}
				}
				JOINT lclavicle
				{
					OFFSET 0.071702 0.114000 -0.018898
					CHANNELS 3 Zrotation Yrotation Xrotation
					JOINT lshoulder
					{
						OFFSET 0.122921 0.045205 -0.019046
						CHANNELS 3 Zrotation Yrotation Xrotation
						JOINT lelbow
						{
							OFFSET 0.255332 -0.015649 -0.022946
							CHANNELS 3 Zrotation Yrotation Xrotation
							JOINT lwrist
							{
								OFFSET 0.265709 0.012698 -0.007375
								CHANNELS 3 Zrotation Yrotation Xrotation
								End Site
								{
									OFFSET 0.000000 0.000000 0.000000
								}
							}
						}
					}
				}
				JOINT rclavicle
				{
					OFFSET -0.082954 0.112472 -0.023707
					CHANNELS 3 Zrotation Yrotation Xrotation
					JOINT rshoulder
					{
						OFFSET -0.113228 0.046853 -0.008472
						CHANNELS 3 Zrotation Yrotation Xrotation
						JOINT relbow
						{
							OFFSET -0.260127 -0.014369 -0.031269
							CHANNELS 3 Zrotation Yrotation Xrotation
							JOINT rwrist
							{
								OFFSET -0.269108 0.006794 -0.006027
								CHANNELS 3 Zrotation Yrotation Xrotation
								End Site
								{
									OFFSET 0.000000 0.000000 0.000000
								}
							}
						}
					}
				}
			}
		}
	}
}
MOTION
Frames: 17
Frame Time: 0.033333
0.080643 -1.373388 0.990018 -149.739783 1.103595 90.492485 4.024602 6.381467 3.092080 -1.111024 0.057583 -3.348277 1.665767 9.011163 -7.434223 0.000000 -0.000000 0.000000 -2.776079 -10.225697 2.788769 0.586638 -9.248600 0.274157 1.412875 -7.975703 -7.831518 0.000000 -0.000000 0.000000 -2.578234 0.914128 -3.923796 2.202603 -3.277900 11.276891 0.325232 -0.732531 -7.189408 0.019945 -7.409223 6.880499 0.410030 -5.755254 8.812040 -33.143504 -0.467901 5.295726 -54.017823 -5.068563 16.791996 5.724724 -20.545494 -2.847702 3.052240 -12.825427 -4.273519 28.137352 7.319282 4.982024 51.273259 6.721648 11.835845 -5.774784 12.315100 -16.820306 0.054835 12.307877 -14.639289 
0.080018 -1.373690 0.989678 -149.665980 1.214315 90.546681 4.057852 6.161468 3.001218 -1.024233 0.184050 -3.284062 1.513948 9.018726 -7.372162 0.000000 -0.000000 0.000000 -2.717643 -10.266242 2.818952 0.666310 -9.304449 0.131444 1.516715 -7.964052 -7.777929 0.000000 -0.000000 0.000000 -2.134818 0.824563 -4.050416 2.056867 -3.324136 11.116114 0.229106 -0.844296 -6.868750 0.146329 -7.301311 6.649223 0.345287 -5.962003 9.167733 -33.005033 -0.535785 5.328843 -54.206615 -5.180579 16.511300 5.768295 -20.383561 -2.559668 2.789320 -13.002317 -4.444490 28.080135 7.427504 5.058472 51.384482 6.810793 11.710938 -5.881310 12.151225 -16.677973 0.160844 12.404974 -14.743869 
0.080098 -1.373814 0.989533 -149.693041 1.215080 90.550519 4.042059 6.163391 2.998691 -1.017775 0.198919 -3.279520 1.495364 9.024205 -7.358691 0.000000 -0.000000 0.000000 -2.715056 -10.259150 2.805268 0.669251 -9.306030 0.124930 1.516704 -7.964038 -7.775515 0.000000 -0.000000 0.000000 -2.108080 0.804856 -4.070331 2.079004 -3.352277 11.125214 0.256698 -0.871480 -6.840397 0.153926 -7.307728 6.646980 0.345126 -5.977681 9.181906 -32.987211 -0.551697 5.327746 -54.210270 -5.202503 16.502681 5.778767 -20.374496 -2.560069 2.774754 -13.012285 -4.446232 28.072610 7.410350 5.080410 51.391599 6.793302 11.705374 -5.883457 12.131366 -16.672968 0.162408 12.403554 -14.750296 
0.080045 -1.373936 0.989521 -149.725584 1.202270 90.559839 4.038711 6.165094 3.000361 -1.004932 0.214073 -3.275351 1.486601 9.031513 -7.352332 0.000000 -0.000000 0.000000 -2.712796 -10.253340 2.795139 0.670336 -9.307068 0.120927 1.515888 -7.964475 -7.774257 0.000000 -0.000000 0.000000 -2.066560 0.767463 -4.068078 2.118361 -3.398811 11.147510 0.305285 -0.912838 -6.804233 0.161003 -7.318073 6.651401 0.345174 -5.994326 9.195577 -32.960795 -0.575576 5.316431 -54.198238 -5.229918 16.495747 5.794960 -20.373658 -2.563453 2.767374 -13.020325 -4.446289 28.076604 7.376394 5.117763 51.402221 6.752207 11.702836 -5.879306 12.101669 -16.668899 0.162608 12.398732 -14.752012 
0.080032 -1.373925 0.989520 -149.729589 1.204846 90.562465 4.036872 6.160905 2.998054 -0.999116 0.222895 -3.273914 1.482000 9.034583 -7.350014 0.000000 -0.000000 0.000000 -2.710583 -10.250305 2.792037 0.671056 -9.307720 0.119451 1.516274 -7.964212 -7.772720 0.000000 -0.000000 0.000000 -2.060310 0.767954 -4.076646 2.118340 -3.400622 11.149646 0.304766 -0.915607 -6.798977 0.162759 -7.320363 6.651776 0.343835 -6.006468 9.203802 -32.956912 -0.580086 5.318031 -54.202541 -5.236517 16.490098 5.799440 -20.366184 -2.566394 2.759028 -13.025870 -4.445666 28.076292 7.380067 5.122874 51.404696 6.751244 11.700122 -5.882211 12.093411 -16.667646 0.163709 12.399866 -14.750632 
0.080743 -1.369801 0.988223 -151.933953 1.370200 91.203190 4.180614 6.142588 3.467127 -0.935169 2.016772 -4.380061 0.426555 9.851343 -7.045840 0.000000 -0.000000 0.000000 -2.310971 -8.845595 2.122379 0.489484 -9.030568 0.034136 1.957925 -7.455631 -7.610513 0.000000 -0.000000 0.000000 -1.787319 1.002526 -6.921584 1.820511 -2.127040 12.058217 0.226828 -0.839426 -5.433771 0.985010 -6.912500 6.350795 0.065736 -8.243282 10.479252 -31.746594 -1.185901 5.755761 -55.382691 -6.053771 14.773982 6.312185 -19.381476 -2.268270 1.424393 -13.996509 -4.283249 28.166972 8.388500 6.159698 52.202767 7.037106 10.844745 -6.468831 11.017106 -16.033155 0.278961 12.931563 -14.993867 
0.081082 -1.369205 0.987707 -152.010033 1.173337 91.213850 4.047290 6.197104 3.503497 -0.990335 1.955640 -4.361951 0.574402 9.782086 -7.207654 0.000000 -0.000000 0.000000 -2.521751 -8.767597 2.327829 0.557733 -8.976233 -0.133044 2.169366 -7.489650 -7.531529 0.000000 -0.000000 0.000000 -2.034666 1.110057 -6.925913 1.783153 -2.166027 11.893389 0.325154 -0.874293 -5.158229 1.015827 -7.144067 5.902651 0.038493 -8.341734 10.804509 -31.583735 -1.276987 6.009985 -55.738496 -6.658921 14.600194 6.474191 -19.282598 -2.162984 1.337874 -13.921872 -4.402207 27.996818 8.329756 6.253674 52.712034 7.366241 10.809722 -6.596186 10.726041 -15.937208 0.241704 12.792977 -15.285445 
0.081434 -1.369067 0.987225 -152.111588 1.102112 91.205948 4.034823 6.173835 3.518780 -1.098923 2.011090 -4.362825 0.648126 9.764698 -7.253689 0.000000 -0.000000 0.000000 -2.603612 -8.759971 2.331851 0.572630 -8.929912 -0.047969 2.263974 -7.461920 -7.593070 0.000000 -0.000000 0.000000 -2.023616 1.134424 -6.688080 1.697485 -2.117389 11.557992 0.326339 -0.907634 -4.967515 1.067920 -7.223607 5.375597 0.020451 -8.513434 11.254581 -31.419341 -1.387157 6.127973 -56.080501 -6.996303 14.508778 6.644021 -19.185793 -2.035224 1.375467 -13.923491 -4.541595 28.002779 8.397867 6.358025 53.054299 7.534728 10.740109 -6.748207 10.455828 -15.928444 0.136014 12.633612 -15.430365 
0.081566 -1.368987 0.986808 -152.174923 1.075369 91.225687 4.029616 6.128162 3.513601 -1.139743 2.080224 -4.387754 0.608358 9.689844 -7.261858 0.000000 -0.000000 0.000000 -2.657373 -8.755742 2.341933 0.621600 -8.931237 -0.052374 2.321874 -7.382338 -7.610016 0.000000 -0.000000 0.000000 -1.917200 1.127073 -6.562150 1.628088 -2.093484 11.294377 0.312431 -0.943072 -4.831013 1.027735 -7.195465 5.177865 0.044182 -8.732620 11.479383 -31.384852 -1.532989 6.229068 -56.375770 -7.221276 14.441806 6.859508 -18.963638 -1.986209 1.525563 -14.206242 -4.672271 27.897832 8.534919 6.484721 53.417791 7.635396 10.664385 -6.884484 10.267827 -15.829827 -0.042906 12.605051 -15.562813 
0.081592 -1.368489 0.986611 -152.092157 1.127903 91.158214 4.133662 6.124138 3.596533 -1.191946 2.021053 -4.385699 0.628258 9.668021 -7.335834 0.000000 -0.000000 0.000000 -2.581453 -8.858036 2.542626 0.637383 -8.896771 -0.190401 2.289739 -7.425127 -7.605966 0.000000 -0.000000 0.000000 -1.841690 1.063870 -6.341335 1.589964 -2.134368 11.063947 0.331055 -0.949348 -4.723540 1.039817 -7.387737 4.850555 0.049726 -8.787465 11.755094 -31.347382 -1.626828 6.354228 -56.661641 -7.440788 14.382036 7.036691 -18.808035 -1.839398 1.736814 -14.196920 -4.941376 27.936471 8.484420 6.523466 53.551257 7.747734 10.599070 -6.918217 10.168705 -15.650305 -0.190567 12.684844 -15.623770 
0.081821 -1.368503 0.986535 -152.208194 1.152271 91.158841 4.186794 6.116701 3.630101 -1.284047 1.952324 -4.445144 -0.037408 9.519558 -7.119759 0.000000 -0.000000 0.000000 -2.553863 -8.833079 2.527472 0.641465 -8.849114 -0.172641 2.287752 -7.396753 -7.582415 0.000000 -0.000000 0.000000 -1.748279 1.073669 -6.106297 1.556361 -2.108768 10.787103 0.333517 -0.943746 -4.686950 1.023169 -7.516882 4.702603 0.017826 -8.736322 11.804346 -31.395060 -1.749529 6.423955 -56.819165 -7.416568 14.477643 7.083259 -18.835027 -1.718747 2.177746 -14.058149 -4.912055 27.973463 8.578508 6.568307 53.653156 7.757209 10.579714 -6.994170 10.081122 -15.634780 -0.398545 12.694159 -15.681087 
0.082049 -1.368325 0.986287 -152.265068 1.148443 91.172548 4.185657 6.139994 3.585313 -1.249973 2.098325 -4.348203 0.541864 9.602033 -7.393878 0.000000 -0.000000 0.000000 -2.550245 -8.876861 2.495993 0.605880 -8.845828 -0.063896 2.339310 -7.260138 -7.692740 0.000000 -0.000000 0.000000 -1.764105 1.098109 -6.026557 1.567372 -2.155780 10.736006 0.347077 -0.958392 -4.706244 1.025891 -7.491109 4.588259 0.022527 -8.730270 11.819395 -31.349681 -1.867879 6.469773 -57.044775 -7.456156 14.424562 7.093622 -18.859452 -1.954807 1.962948 -14.044805 -4.914328 27.949256 8.763372 6.673344 53.780567 7.775687 10.556825 -7.161835 10.074992 -15.806290 -0.235750 12.867163 -15.791124 
0.082191 -1.368142 0.986070 -152.305842 1.175940 91.178404 4.221172 6.160332 3.574216 -1.229269 2.147112 -4.304485 0.812910 9.594227 -7.451747 0.000000 -0.000000 0.000000 -2.526164 -8.888097 2.514518 0.620595 -8.801710 -0.099663 2.357252 -7.251933 -7.750014 0.000000 -0.000000 0.000000 -1.687542 1.101420 -5.949729 1.564229 -2.174730 10.601446 0.323371 -0.992071 -4.654759 1.012527 -7.524824 4.553387 -0.052419 -8.780497 11.777210 -31.361607 -1.915771 6.510212 -57.229434 -7.478431 14.480452 7.127931 -18.794894 -1.849955 1.965146 -13.883624 -4.899038 27.857131 8.850811 6.719789 53.933317 7.881279 10.548328 -7.272674 10.099592 -15.891608 -0.354176 12.628588 -15.967355 
0.082389 -1.367967 0.985981 -152.333885 1.204512 91.134790 4.253389 6.175226 3.632664 -1.191265 2.106748 -4.306869 0.843776 9.589424 -7.425030 0.000000 -0.000000 0.000000 -2.493182 -8.927773 2.586944 0.609150 -8.757467 -0.136595 2.290095 -7.239799 -7.663403 0.000000 -0.000000 0.000000 -1.631544 1.083556 -5.723687 1.520374 -2.160182 10.441061 0.314547 -0.974077 -4.616948 1.022883 -7.724013 4.413238 0.039520 -8.834919 11.678687 -31.445045 -1.896520 6.541129 -57.254345 -7.438330 14.555112 7.145420 -18.926219 -1.567734 2.187748 -13.867639 -4.996553 27.884672 8.859855 6.641864 53.955513 7.868065 10.584536 -7.323649 10.308084 -15.838956 -0.443381 12.556563 -16.243382 
0.082439 -1.367960 0.985734 -152.364399 1.200371 91.126914 4.259263 6.219468 3.620193 -1.228839 2.191688 -4.272427 0.883020 9.558255 -7.464604 0.000000 -0.000000 0.000000 -2.525478 -8.950596 2.571596 0.653387 -8.833810 -0.067323 2.297991 -7.167496 -7.775988 0.000000 -0.000000 0.000000 -1.580924 1.085389 -5.760499 1.505079 -2.189214 10.503792 0.274730 -0.997250 -4.649196 0.956412 -7.808707 4.497076 0.064030 -9.061456 11.637346 -31.512386 -2.055385 6.681927 -57.383382 -7.386555 14.543657 7.299801 -18.920294 -1.783982 2.406786 -13.794661 -5.067872 27.862793 9.137051 6.767053 53.990253 7.886705 10.571414 -7.391722 10.344655 -15.897876 -0.461998 12.710560 -16.404273 
0.082444 -1.367657 0.985629 -152.339283 1.201377 91.099143 4.284954 6.223993 3.693612 -1.266133 2.183064 -4.330009 0.832189 9.532615 -7.477743 0.000000 -0.000000 0.000000 -2.521442 -8.948230 2.684299 0.669859 -8.821725 -0.188627 2.276184 -7.209478 -7.754528 0.000000 -0.000000 0.000000 -1.616883 1.079510 -5.730600 1.503803 -2.201862 10.525018 0.300526 -0.997836 -4.663845 0.966821 -7.918198 4.435932 0.100574 -9.242137 11.566027 -31.453036 -2.048480 6.731889 -57.550251 -7.407098 14.456556 7.288207 -18.907001 -1.905530 2.116035 -13.715074 -5.163675 27.817691 9.176032 6.742867 54.004679 7.927691 10.534405 -7.470461 10.405054 -15.962543 -0.303119 12.710653 -16.477073 
0.082683 -1.367626 0.985473 -152.375372 1.204168 91.133062 4.268657 6.164469 3.642505 -1.222265 2.215830 -4.301306 0.876641 9.554876 -7.509025 0.000000 -0.000000 0.000000 -2.503530 -8.940731 2.615507 0.637894 -8.859632 -0.115039 2.298221 -7.137267 -7.783377 0.000000 -0.000000 0.000000 -1.608661 1.098654 -5.676791 1.479691 -2.202904 10.402822 0.296349 -0.985276 -4.632572 0.915216 -8.041431 4.384190 0.056441 -9.426426 11.469285 -31.418589 -2.073247 6.719110 -57.688573 -7.365617 14.409083 7.367832 -18.804654 -2.078562 1.825748 -13.997645 -5.290580 27.761028 9.308259 6.745319 54.114171 7.907509 10.571336 -7.624193 10.474627 -15.949231 -0.184803 12.908395 -16.524013 
